<?xml version="1.0" standalone="no"?>
<!DOCTYPE svg PUBLIC "-//W3C//DTD SVG 20010904//EN"
 "http://www.w3.org/TR/2001/REC-SVG-20010904/DTD/svg10.dtd">
<svg version="1.0" xmlns="http://www.w3.org/2000/svg"
 width="610.000000pt" height="373.000000pt" viewBox="0 0 610.000000 373.000000"
 preserveAspectRatio="xMidYMid meet">

<g transform="translate(0.000000,373.000000) scale(0.100000,-0.100000)"
fill="#000000" stroke="none">
<path d="M3375 3665 c-108 -24 -364 -147 -515 -247 -35 -24 -77 -61 -92 -83
-101 -150 -44 -279 274 -611 171 -180 225 -256 304 -427 36 -78 75 -147 99
-174 38 -42 46 -46 95 -50 46 -4 61 -1 90 19 74 50 97 108 128 313 l9 60 13
-30 c8 -19 14 -70 14 -135 0 -94 -8 -150 -40 -251 -3 -13 6 -17 48 -22 73 -9
154 -52 216 -114 30 -29 57 -51 62 -48 12 7 30 89 30 134 0 23 3 41 6 41 3 0
47 -38 97 -85 49 -47 120 -106 157 -130 172 -114 395 -191 525 -180 101 9 113
12 131 41 24 36 9 47 -105 79 -124 34 -281 109 -370 176 -81 60 -98 95 -23 49
55 -34 179 -76 274 -92 50 -8 90 -8 156 1 187 24 343 102 484 241 133 133 188
227 273 466 51 143 94 230 129 263 16 15 49 29 84 36 62 13 65 19 48 93 -7 29
-4 37 34 74 39 40 46 68 16 68 -34 0 -167 -30 -193 -43 -51 -27 -164 -139
-213 -211 -26 -40 -77 -130 -113 -202 -74 -148 -143 -237 -226 -293 -75 -50
-132 -71 -212 -78 -126 -11 -239 52 -332 185 -61 87 -134 253 -167 382 -34
133 -104 317 -156 410 -31 56 -73 110 -120 157 -113 112 -197 147 -361 147
-57 0 -107 -4 -113 -10 -6 -6 -2 -36 10 -84 27 -103 26 -300 -1 -300 -5 0 -11
12 -15 28 -42 193 -85 296 -156 377 -23 26 -57 54 -75 61 -40 17 -128 16 -208
-1z m809 -840 c11 -9 20 -31 24 -60 4 -38 1 -50 -18 -70 -39 -42 -91 -28 -109
28 -26 78 44 147 103 102z"/>
<path d="M1397 3551 c-235 -52 -409 -171 -547 -376 -112 -166 -194 -376 -226
-582 -14 -89 -17 -191 -19 -573 -2 -467 -6 -537 -42 -680 -47 -189 -151 -358
-248 -404 -86 -41 -200 -3 -239 79 -25 52 -41 39 -44 -36 -2 -54 2 -73 25
-118 15 -30 40 -64 55 -75 39 -28 123 -33 189 -11 131 44 311 311 374 556 40
154 75 479 75 695 0 74 4 124 10 124 5 0 17 -15 26 -32 21 -41 100 -153 136
-193 14 -16 59 -70 98 -120 40 -49 120 -144 179 -209 58 -65 130 -146 160
-179 58 -66 89 -127 97 -191 10 -73 -37 -220 -119 -374 -91 -173 -94 -181
-113 -326 -8 -67 -27 -156 -41 -198 -26 -77 -26 -78 -8 -117 47 -106 189 -170
378 -171 104 0 142 16 157 67 11 36 10 43 -18 89 -16 27 -35 67 -42 88 -24 76
5 216 80 381 33 74 119 293 140 359 14 45 87 166 170 286 85 121 103 168 104
265 0 92 -13 137 -85 291 -53 114 -93 233 -86 261 4 17 5 16 12 -2 37 -93 74
-169 104 -215 62 -93 118 -193 131 -234 8 -23 11 -74 8 -130 -3 -77 -9 -102
-36 -160 l-32 -69 67 6 c38 4 119 9 181 13 l112 7 0 54 c0 193 78 526 131 559
9 5 10 0 5 -17 -34 -119 -38 -169 -40 -544 -3 -377 -11 -484 -45 -612 -19 -69
-48 -76 -216 -49 -136 23 -156 17 -188 -51 -19 -41 -22 -65 -21 -163 1 -171
40 -291 109 -336 34 -23 60 -13 130 47 75 64 137 93 245 114 145 27 169 34
208 60 59 39 107 111 140 210 30 90 38 124 87 350 60 278 142 535 212 665 45
84 144 230 156 230 5 0 3 -10 -5 -22 -44 -69 -150 -329 -185 -453 -20 -73 -63
-291 -63 -319 0 -35 29 -104 125 -300 103 -209 132 -307 140 -471 7 -138 17
-170 56 -190 34 -18 168 -20 255 -4 81 15 178 62 192 94 25 54 13 95 -44 155
-37 39 -104 168 -127 245 -8 28 -23 86 -32 130 -16 75 -66 272 -134 530 -41
154 -55 304 -48 504 3 91 8 174 12 184 6 14 1 17 -31 17 -53 0 -117 34 -165
88 -24 27 -77 118 -124 212 -94 188 -112 212 -294 405 -180 190 -247 275 -295
375 -38 78 -41 92 -41 165 0 97 20 140 102 227 52 54 54 57 32 62 -13 3 -185
19 -382 36 -477 41 -851 49 -980 21z"/>
<path d="M826 1823 c-25 -290 -57 -497 -92 -594 -7 -22 -18 -79 -24 -127 -13
-107 -28 -155 -95 -297 -63 -135 -75 -184 -75 -321 0 -58 -7 -160 -16 -226
-15 -117 -15 -122 3 -147 41 -55 82 -66 260 -66 148 0 164 2 190 21 36 27 39
48 14 129 -36 116 -23 373 30 565 22 83 90 228 142 305 114 169 158 237 155
245 -2 4 -55 65 -120 136 -64 71 -173 200 -241 287 l-125 157 -6 -67z"/>
</g>
</svg>
